<svg width="500" height="220" viewBox="0 0 92 40" fill="none" xmlns="http://www.w3.org/2000/svg">
<path d="M83.6217 20.0596C83.7198 20.0596 83.8173 20.0619 83.9154 20.059C84.5124 20.0393 85.082 19.8956 85.6038 19.6064C86.6929 19.0026 87.4211 18.0911 87.7718 16.883C87.9902 16.1308 88.0312 15.3619 87.9429 14.5826C87.8163 13.4674 87.3857 12.508 86.5794 11.7252C86.0731 11.234 85.4869 10.8946 84.8072 10.7214C84.2757 10.5857 83.7374 10.5586 83.1917 10.6065C82.5423 10.6631 81.9344 10.8478 81.3813 11.1982C80.3914 11.8251 79.7521 12.7164 79.4699 13.8611C79.2253 14.8493 79.2355 15.8445 79.495 16.8281C79.8023 17.9953 80.4712 18.8987 81.5016 19.5152C82.1539 19.9048 82.8679 20.0688 83.6217 20.0596ZM92 16.1724C91.9875 16.2335 91.9664 16.2947 91.9629 16.3559C91.8911 17.6316 91.5085 18.8127 90.8715 19.9066C90.2249 21.0178 89.3627 21.9316 88.3044 22.6491C87.4108 23.2558 86.4278 23.6298 85.3575 23.7649C84.2826 23.9006 83.2282 23.8209 82.1973 23.4734C81.4628 23.2252 80.8054 22.8367 80.1969 22.357C80.0355 22.23 79.8833 22.0915 79.7248 21.9604C79.6723 21.9171 79.613 21.8825 79.5634 21.8484C79.479 21.901 79.4967 21.9708 79.4961 22.0297C79.4938 22.3807 79.4955 22.7322 79.4944 23.0832C79.4938 23.1905 79.4984 23.2991 79.4283 23.4116C79.3444 23.4168 79.2572 23.4278 79.1699 23.4278C78.0312 23.429 76.8925 23.4295 75.7537 23.4278C75.4521 23.4278 75.4435 23.4157 75.4395 23.1057C75.439 23.052 75.4395 22.9977 75.4395 22.9441V1.46464C75.4395 1.36536 75.4373 1.26607 75.443 1.16736C75.4509 1.0242 75.484 0.990723 75.6163 0.979177C75.6693 0.973982 75.7224 0.975136 75.776 0.975136C76.9062 0.97456 78.0358 0.974558 79.166 0.975714C79.2532 0.975714 79.3404 0.986103 79.4368 0.991877C79.4573 1.06403 79.4824 1.12176 79.4881 1.18122C79.4973 1.27992 79.4944 1.37921 79.4944 1.4785C79.495 3.82905 79.4944 6.17961 79.4955 8.53017C79.4955 8.63696 79.4802 8.74548 79.5155 8.84477C79.5868 8.88517 79.6204 8.83322 79.6603 8.80147C79.9654 8.55383 80.2596 8.29003 80.5773 8.06029C81.4708 7.41608 82.4693 7.01893 83.5561 6.88616C85.6796 6.6264 87.5762 7.16151 89.2042 8.59597C90.0208 9.31465 90.6697 10.1638 91.1458 11.1463C91.5284 11.9365 91.7725 12.7718 91.9008 13.6417C91.9304 13.846 91.939 14.0533 91.9607 14.2594C91.9692 14.339 91.9869 14.4175 92 14.4966V16.1724Z" fill="#061257"/>
<path d="M46.0442 14.3135C45.9957 14.4169 45.9575 14.4856 45.9302 14.5583C45.5236 15.6256 45.1182 16.6935 44.7127 17.7609C44.033 19.5515 43.3527 21.3427 42.6719 23.1328C42.5601 23.4277 42.5579 23.4283 42.2499 23.4289C41.6004 23.43 40.951 23.43 40.3015 23.4289C40.0175 23.4283 40.0141 23.4277 39.9177 23.1587C39.5693 22.1855 39.2237 21.2105 38.8771 20.2361C38.097 18.0408 37.3163 15.8461 36.5368 13.6514C35.925 11.9307 35.3149 10.2099 34.7041 8.48911C34.593 8.17567 34.48 7.8628 34.3694 7.54877C34.3403 7.46507 34.317 7.37849 34.2867 7.28035C34.346 7.25438 34.3911 7.22494 34.439 7.21743C34.5091 7.20589 34.581 7.20877 34.6517 7.20877C35.7203 7.2082 36.7877 7.2082 37.8558 7.20877C37.9179 7.20877 37.9801 7.21166 38.0422 7.21339C38.1437 7.21686 38.2059 7.26939 38.239 7.36521C38.3188 7.59495 38.4021 7.82297 38.4825 8.05214C39.0675 9.71519 39.652 11.3788 40.2365 13.0413C40.5917 14.0509 40.947 15.0605 41.3045 16.0695C41.3296 16.1411 41.3307 16.2312 41.4334 16.2785C41.4642 16.2139 41.4984 16.1538 41.5223 16.0897C41.7419 15.509 41.9597 14.9277 42.1781 14.347C42.985 12.2008 43.7918 10.054 44.5987 7.90782C44.6654 7.73061 44.7338 7.55512 44.7977 7.37733C44.8365 7.27169 44.9078 7.21743 45.0178 7.21397C45.0805 7.21166 45.1427 7.20877 45.2043 7.20877C45.783 7.2082 46.3618 7.2082 46.94 7.2082C46.9583 7.2082 46.976 7.2082 46.9936 7.20877C47.289 7.21397 47.297 7.21859 47.4002 7.49394C48.0605 9.2632 48.7203 11.0325 49.3812 12.8017C49.7775 13.8639 50.1732 14.9254 50.5701 15.9864C50.594 16.0505 50.6037 16.1267 50.6944 16.1683C50.7235 16.103 50.756 16.0418 50.7788 15.9778C51.0953 15.0876 51.4112 14.1981 51.7271 13.308C52.4142 11.3661 53.1007 9.42426 53.7884 7.48297C53.8814 7.22032 53.8922 7.20993 54.1739 7.20935C55.2955 7.20762 56.416 7.2082 57.5377 7.20935C57.6164 7.20935 57.6979 7.203 57.7766 7.26073C57.8108 7.36001 57.7543 7.44891 57.723 7.53896C57.5559 8.01404 57.3854 8.48796 57.2155 8.96188C56.7302 10.3167 56.2455 11.6715 55.7603 13.0263C55.0332 15.0588 54.3062 17.0913 53.5797 19.1238C53.1076 20.4451 52.6366 21.7664 52.1639 23.0877C52.0356 23.4474 52.0624 23.4283 51.6963 23.4289C51.065 23.43 50.4327 23.43 49.8008 23.4289C49.4519 23.4283 49.4764 23.4468 49.3469 23.1027C48.9712 22.1006 48.5988 21.0974 48.2247 20.0947C47.5296 18.2325 46.8351 16.3703 46.1389 14.5092C46.1183 14.4532 46.087 14.4013 46.0442 14.3135Z" fill="#061257"/>
<path d="M70.1006 13.2412C70.0356 12.9698 69.9341 12.7413 69.8098 12.5236C69.2903 11.6145 68.5319 10.9905 67.5648 10.6262C66.9655 10.4005 66.3417 10.3237 65.7042 10.3411C64.9925 10.3595 64.3117 10.5125 63.6696 10.8242C63.1923 11.0563 62.7641 11.3576 62.4157 11.7686C62.0661 12.1819 61.7976 12.6466 61.5695 13.1367C61.5535 13.1719 61.5592 13.2175 61.5529 13.2798C61.6778 13.2827 61.7833 13.2879 61.8888 13.2879C64.5021 13.2885 67.1155 13.2879 69.7288 13.2879C69.8086 13.2879 69.889 13.2885 69.9689 13.2827C70.0014 13.2804 70.0339 13.2631 70.1006 13.2412ZM61.334 16.5471C61.3437 16.6227 61.3459 16.7029 61.363 16.7797C61.59 17.821 62.0998 18.6852 62.942 19.3357C63.5356 19.7952 64.2153 20.0469 64.9492 20.1595C65.3107 20.2155 65.6745 20.2299 66.04 20.2178C67.2563 20.1779 68.3375 19.7756 69.2761 18.9871C69.3719 18.9068 69.4688 18.8266 69.5589 18.74C69.6393 18.6627 69.7214 18.6378 69.824 18.691C69.8873 18.7239 69.9546 18.7487 70.0185 18.7793C70.9514 19.2272 71.8837 19.6752 72.816 20.1243C72.8862 20.1583 72.9529 20.2005 73.0378 20.2478C72.9979 20.3251 72.9728 20.391 72.9323 20.4464C72.5514 20.9705 72.1226 21.4502 71.6379 21.8791C70.477 22.9072 69.113 23.47 67.5996 23.7038C67.0351 23.7909 66.466 23.8319 65.8986 23.8314C64.5603 23.8308 63.2579 23.6207 62.0296 23.048C61.395 22.7519 60.8105 22.3778 60.2762 21.923C59.4978 21.2609 58.8615 20.4804 58.3694 19.5793C57.9736 18.8555 57.7142 18.0825 57.5511 17.2744C57.3772 16.412 57.3452 15.5386 57.4028 14.6652C57.4872 13.401 57.786 12.1883 58.4127 11.0828C59.6678 8.86849 61.5028 7.44558 64.0083 6.96819C64.6755 6.8412 65.3501 6.79502 66.0275 6.82273C67.1109 6.86717 68.1698 7.0467 69.1768 7.46924C70.8641 8.17753 72.1568 9.34299 73.0606 10.9483C73.6103 11.9239 73.9205 12.9797 74.0728 14.0886C74.1703 14.7957 74.1874 15.5057 74.1697 16.218C74.1635 16.4697 74.1424 16.4893 73.8892 16.4957C73.7997 16.498 73.7107 16.4963 73.6217 16.4963C69.653 16.4963 65.6836 16.4963 61.7149 16.498C61.5934 16.498 61.4657 16.4674 61.334 16.5471Z" fill="#061257"/>
<path d="M26.7786 32.1775C26.8241 32.2552 26.7914 32.3233 26.7741 32.389C26.6014 33.0463 26.4262 33.7032 26.2525 34.3595C26.0441 35.1451 25.8357 35.9303 25.6278 36.7159C25.4457 37.4033 25.2641 38.0907 25.0814 38.7776C25.0661 38.8362 25.0418 38.8929 25.026 38.9375C24.9493 38.9861 24.8899 38.957 24.8315 38.9415C24.0035 38.718 23.1749 38.494 22.3469 38.2696C21.5936 38.0652 20.8403 37.8592 20.087 37.6548C18.6552 37.265 17.2229 36.8767 15.7905 36.4884C14.9179 36.2514 14.0449 36.0139 13.1723 35.778C11.6207 35.3571 10.0686 34.9367 8.51744 34.5159C7.07718 34.1255 5.63791 33.7332 4.19814 33.3429C3.22807 33.0804 2.258 32.8189 1.28842 32.5568C0.907814 32.4536 0.527209 32.3494 0.147099 32.2452C0.0976056 32.2306 0.0495956 32.2111 0.00158691 32.165C0.0273235 32.1605 0.0530612 32.153 0.0787978 32.152C0.156008 32.1505 0.233217 32.151 0.310427 32.151H12.1052C12.1978 32.151 12.2908 32.152 12.3829 32.145C12.4695 32.138 12.5032 32.1004 12.5116 32.0092C12.5175 31.9471 12.5165 31.8839 12.5165 31.8213C12.517 30.4299 12.517 29.0376 12.5165 27.6462C12.5165 27.318 12.5155 27.317 12.1983 27.317C10.6145 27.3165 9.03119 27.3165 7.44789 27.3165H0.565813C0.480684 27.3165 0.395555 27.318 0.310921 27.3115C0.20847 27.304 0.169866 27.2684 0.157987 27.1712C0.150068 27.1091 0.150564 27.0465 0.150564 26.9838C0.150069 25.5063 0.150069 24.0278 0.150564 22.5502C0.151059 22.458 0.136211 22.3613 0.202037 22.2711C0.241632 22.2631 0.286175 22.2486 0.330719 22.2466C0.415353 22.2416 0.500482 22.2436 0.585611 22.2436C3.82199 22.2436 7.05837 22.2436 10.2948 22.2431C10.3873 22.2431 10.4799 22.2426 10.5719 22.2341C10.6457 22.2276 10.6828 22.188 10.6922 22.1138C10.7001 22.0517 10.7011 21.9891 10.7011 21.9264C10.7016 20.6443 10.7021 19.3617 10.7011 18.0795C10.7011 17.7619 10.6937 17.7543 10.3725 17.7543C7.09747 17.7538 3.82249 17.7538 0.547501 17.7533C0.454948 17.7533 0.362395 17.7518 0.269842 17.7453C0.208965 17.7413 0.171351 17.7012 0.161452 17.6411C0.154028 17.595 0.151058 17.5479 0.151058 17.5013C0.150563 16.117 0.150563 14.7331 0.151058 13.3493C0.151058 13.2801 0.144128 13.207 0.210945 13.1418C0.237671 13.1388 0.275782 13.1308 0.312902 13.1308C0.552451 13.1323 0.791999 13.1373 1.03155 13.1373C4.61537 13.1373 8.1992 13.1373 11.783 13.1373C11.8756 13.1373 11.9686 13.1393 12.0612 13.1328C12.1854 13.1238 12.2181 13.0862 12.228 12.955C12.2309 12.9084 12.23 12.8613 12.2304 12.8147C12.2304 11.4068 12.2304 9.99938 12.2299 8.59198C12.2295 8.52184 12.2255 8.45169 12.2161 8.38205C12.2092 8.33195 12.1735 8.29888 12.124 8.28835C12.0864 8.28084 12.0473 8.27683 12.0092 8.27583C11.932 8.27382 11.8548 8.27433 11.7776 8.27433C8.44073 8.27433 5.10387 8.27483 1.76702 8.27332C1.65418 8.27332 1.53539 8.29938 1.43195 8.23675C1.39087 8.15207 1.42799 8.07692 1.4468 8.00327C1.52549 7.69313 1.60815 7.38349 1.69031 7.07385C2.02191 5.82077 2.35451 4.56719 2.68661 3.31361C2.86479 2.64173 3.04098 1.96885 3.22114 1.29746C3.25084 1.18674 3.2647 1.06749 3.33696 0.978806C3.36121 0.972294 3.37556 0.966782 3.3909 0.965279C3.40575 0.963776 3.42209 0.963776 3.43644 0.967781C12.2992 3.37073 21.1616 5.77418 30.0239 8.17813C30.0743 8.19166 30.1238 8.2102 30.1763 8.22723C30.154 8.28836 30.1095 8.27082 30.0773 8.27182C29.9382 8.27433 29.7997 8.27383 29.6601 8.27383C25.219 8.27383 20.7775 8.27383 16.3364 8.27383C16.236 8.27383 16.1355 8.27433 16.0355 8.28284C15.9613 8.28886 15.9237 8.32844 15.9142 8.40209C15.9063 8.46372 15.9053 8.52634 15.9053 8.58897C15.9048 9.99637 15.9044 11.4038 15.9053 12.8112C15.9053 13.0938 15.9187 13.1053 16.1884 13.1083C16.2577 13.1088 16.3275 13.1083 16.3968 13.1083C20.0425 13.1083 23.6882 13.1083 27.3339 13.1088C27.4408 13.1088 27.5482 13.1143 27.6422 13.1168C27.6927 13.1844 27.6576 13.2205 27.6284 13.2561C27.3967 13.5387 27.1641 13.8207 26.9315 14.1028C26.4915 14.6369 26.0515 15.1715 25.611 15.7056C25.1799 16.2272 24.7479 16.7478 24.3173 17.2698C23.8862 17.7914 23.4571 18.3145 23.026 18.8361C22.5904 19.3642 22.1534 19.8907 21.7179 20.4188C21.2873 20.9404 20.8577 21.4635 20.4271 21.9856C20.0069 22.4956 19.5857 23.0052 19.165 23.5157C18.6404 24.151 18.1157 24.7873 17.5911 25.4231C17.0912 26.0294 16.5908 26.6346 16.0904 27.2404C15.9271 27.4383 15.7673 27.6392 15.599 27.8326C15.4846 27.9629 15.4371 28.1042 15.4381 28.28C15.4436 29.2886 15.4406 30.2972 15.4406 31.3062C15.4406 31.4936 15.4401 31.6815 15.4411 31.8689C15.4416 31.9235 15.4436 31.9786 15.4495 32.0327C15.4569 32.0929 15.4911 32.1329 15.5529 32.141C15.5911 32.1465 15.6297 32.1485 15.6683 32.149C15.7455 32.1505 15.8227 32.15 15.8999 32.15C19.4219 32.15 22.9438 32.1495 26.4663 32.151C26.5722 32.151 26.6821 32.1289 26.7786 32.1775Z" fill="#0A65FC"/>
<path d="M30.9884 16.3469C31.0235 16.4275 30.9815 16.5007 30.9627 16.5728C30.8335 17.0714 30.7008 17.5694 30.5692 18.0674C30.3707 18.8145 30.1723 19.5615 29.9738 20.3085C29.6338 21.5917 29.2942 22.8743 28.9547 24.158C28.6988 25.1239 28.4439 26.0899 28.1891 27.0564C28.1831 27.0795 28.1782 27.1025 28.1717 27.1246C28.1212 27.2929 28.1019 27.3079 27.9287 27.3145C27.8822 27.316 27.8362 27.3155 27.7896 27.3155C26.0836 27.3155 24.3776 27.3155 22.6715 27.3145C22.5819 27.3145 22.4884 27.3325 22.4087 27.2904C22.38 27.2137 22.429 27.1767 22.4612 27.1361C22.768 26.7443 23.0764 26.354 23.3837 25.9622C24.0078 25.167 24.6315 24.3714 25.2561 23.5763C26.0247 22.5982 26.7943 21.6202 27.563 20.6417C28.293 19.7118 29.0215 18.7814 29.7511 17.851C30.1158 17.386 30.4796 16.9201 30.8449 16.4556C30.8815 16.4095 30.9067 16.3444 30.9884 16.3469Z" fill="#0A65FC"/>
<path d="M60.239 30.9007C60.2832 30.9079 60.328 30.9092 60.3687 30.923C60.7269 31.0481 61.0865 31.1706 61.4427 31.3023C61.6207 31.3692 61.6396 31.4151 61.585 31.5874C61.4335 32.0572 61.2716 32.5244 61.1265 32.9955C60.9779 33.4778 60.8734 33.9692 60.7977 34.4652C60.7262 34.9324 60.7942 35.3852 61.0052 35.8137C61.2029 36.2174 61.5275 36.5142 61.9418 36.7284C62.3007 36.9152 62.694 37.0069 63.0942 37.0652C63.7357 37.1589 64.3785 37.1517 65.0241 37.0928C65.6256 37.0384 66.2152 36.9427 66.7928 36.775C67.2134 36.6524 67.6102 36.4847 67.9649 36.2377C68.1093 36.1368 68.2236 36.0175 68.2888 35.8596C68.3386 35.7423 68.3098 35.6565 68.1794 35.6126C67.9733 35.5451 67.7623 35.49 67.5513 35.4383C67.1601 35.3419 66.7648 35.26 66.3757 35.1578C66.0063 35.0608 65.6551 34.9226 65.3312 34.7214C64.8952 34.4508 64.6554 34.0655 64.5299 33.6036C64.4185 33.196 64.4591 32.7911 64.5601 32.3887C64.83 31.3161 65.4581 30.4715 66.4304 29.849C67.1861 29.3641 68.0217 29.1322 68.9365 29.1656C69.3438 29.18 69.7392 29.2619 70.1163 29.4107C70.1935 29.4401 70.2629 29.4886 70.3386 29.5299C70.3287 29.5869 70.3295 29.6295 70.3133 29.6649C70.1472 30.0541 69.9782 30.4427 69.8079 30.8306C69.7967 30.8574 69.77 30.8784 69.7392 30.9151C69.6291 30.8889 69.524 30.8673 69.4216 30.8397C69.0136 30.731 68.6035 30.7284 68.1871 30.7978C67.9341 30.8391 67.7069 30.9374 67.4875 31.0514C66.9414 31.3364 66.4991 31.7256 66.1829 32.2308C66.1058 32.3527 66.0638 32.4936 66.0084 32.6266C65.993 32.6639 65.9859 32.7059 65.9796 32.7459C65.9229 33.1056 66.0483 33.3454 66.4052 33.4863C66.6351 33.5774 66.8804 33.6396 67.123 33.6986C67.5674 33.8074 68.0175 33.8958 68.4605 34.0085C68.8447 34.1061 69.1952 34.2686 69.4735 34.5484C69.6985 34.7752 69.8163 35.0405 69.8429 35.3478C69.9166 36.1911 69.5653 36.8601 68.8931 37.4014C68.2033 37.9577 67.3866 38.2643 66.5159 38.4596C65.9838 38.5795 65.4448 38.6647 64.8952 38.6791C64.5895 38.6876 64.2839 38.7296 63.9789 38.7197C63.1896 38.6929 62.4101 38.6083 61.6621 38.3436C61.0368 38.1228 60.4872 37.7991 60.0399 37.3332C59.7055 36.986 59.477 36.5804 59.3221 36.1381C59.1181 35.5542 59.0844 34.9527 59.1664 34.3492C59.3158 33.2471 59.6635 32.1922 60.0609 31.1503C60.0932 31.0645 60.1184 30.9728 60.239 30.9007Z" fill="#061257"/>
<path d="M86.08 29.5393C86.0957 29.53 86.1323 29.504 86.1724 29.4867C86.6058 29.2951 87.0399 29.1041 87.4747 28.9151C87.5134 28.8985 87.56 28.9005 87.5929 28.8951C87.7068 28.9624 87.7412 29.0655 87.7906 29.1567C88.1667 29.8594 88.396 30.606 88.5442 31.3759C88.6395 31.8743 88.6381 32.368 88.4554 32.8511C88.2763 33.3249 87.9712 33.7075 87.522 33.9963C86.9883 34.339 86.3937 34.4908 85.7583 34.5214C84.9546 34.56 84.1516 34.5832 83.3471 34.5799C81.4917 34.5713 79.6364 34.5739 77.7817 34.5793C77.3526 34.5799 76.9343 34.5407 76.5303 34.4029C76.4995 34.3916 76.4651 34.3889 76.4321 34.3849C76.4228 34.3836 76.4114 34.3916 76.3777 34.4029C76.3641 34.4342 76.3361 34.4788 76.3275 34.526C76.1836 35.3072 75.7666 35.962 75.2351 36.5649C74.5252 37.3714 73.6455 37.9869 72.6885 38.5139C72.4098 38.6677 72.1211 38.8054 71.8346 38.9465C71.7586 38.9837 71.6727 39.0057 71.5881 39.0356C71.4341 38.9159 71.3725 38.7582 71.2894 38.6138C71.2042 38.4674 71.1232 38.319 71.0473 38.1693C70.9721 38.0209 70.8618 37.8858 70.8431 37.7301C70.9019 37.6063 71.0165 37.5764 71.1111 37.5264C71.4212 37.3621 71.74 37.2104 72.0459 37.0394C72.6505 36.7006 73.2207 36.3187 73.7193 35.8502C73.9793 35.606 74.2028 35.3358 74.3941 35.0404C74.7136 34.5433 74.8003 34.0156 74.6627 33.4527C74.5359 32.935 74.3389 32.4379 74.1283 31.9455C74.0667 31.8004 74.0015 31.658 73.9442 31.5116C73.9149 31.4358 73.8998 31.3552 73.8762 31.2674C73.945 31.2268 73.9965 31.1882 74.0546 31.1623C74.3862 31.0179 75.2337 30.7304 75.4385 30.6911C75.5532 30.7384 75.5653 30.8495 75.609 30.942C75.7724 31.2947 75.925 31.652 76.1062 31.9961C76.2079 32.1904 76.3462 32.3707 76.4866 32.5444C76.7459 32.8631 77.1062 33.0088 77.531 33.0215C77.5876 33.0235 77.6435 33.0228 77.6994 33.0228C79.9451 33.0228 82.1909 33.0241 84.4374 33.0208C84.9173 33.0202 85.3973 32.9895 85.8701 32.9037C86.0657 32.8678 86.2584 32.8079 86.4475 32.7447C86.5506 32.7114 86.6488 32.6562 86.7405 32.5969C86.9045 32.4911 86.9962 32.3441 87.0012 32.1511C87.0069 31.9102 86.9847 31.676 86.9067 31.4437C86.7333 30.9267 86.4969 30.435 86.2369 29.9512C86.1731 29.8327 86.0843 29.7209 86.08 29.5393Z" fill="#061257"/>
<path d="M53.7254 33.0115C53.8482 33.0115 53.971 33.0201 54.0932 33.0095C54.2219 32.9982 54.2659 32.9316 54.2475 32.7959C54.2344 32.7034 54.2193 32.6109 54.1943 32.5217C54.0676 32.0805 53.8778 31.6706 53.596 31.3073C53.4378 31.1037 53.2756 30.9054 53.0549 30.7643C52.852 30.6365 52.6497 30.6239 52.4501 30.755C51.9989 31.0491 51.7618 31.4803 51.6975 32.0107C51.6594 32.3208 51.7973 32.559 52.058 32.7094C52.2064 32.7952 52.3732 32.8591 52.5394 32.9017C52.9275 33.0028 53.3288 32.9968 53.7254 33.0115ZM49.9473 37.3295C50.0235 37.239 50.1292 37.231 50.2284 37.2103C51.0053 37.0446 51.7434 36.7745 52.4455 36.3965C52.8086 36.1996 53.1436 35.9633 53.4522 35.6878C53.6932 35.4736 53.8817 35.2154 54.04 34.9346C54.0754 34.872 54.0997 34.8021 54.1214 34.7336C54.1418 34.6677 54.1011 34.6078 54.0334 34.5972C53.9723 34.5872 53.9106 34.5846 53.8495 34.5812C53.4713 34.5613 53.0923 34.5533 52.7154 34.52C52.2412 34.4768 51.7894 34.343 51.3717 34.1081C50.7065 33.7341 50.3722 33.1512 50.3387 32.3853C50.2974 31.4623 50.5817 30.6412 51.1399 29.9265C51.8104 29.0681 52.8054 28.8885 53.7051 29.3157C54.2606 29.5805 54.6626 30.0204 54.985 30.5367C55.3797 31.1696 55.6049 31.8636 55.7061 32.6049C55.7974 33.281 55.7639 33.9491 55.6108 34.6125C55.4605 35.2613 55.159 35.8329 54.767 36.3613C54.2968 36.9947 53.6998 37.4785 53.026 37.8658C52.2885 38.2897 51.4972 38.5665 50.6658 38.7262C50.6251 38.7342 50.5857 38.7448 50.5449 38.7501C50.3249 38.7788 50.2652 38.7455 50.21 38.5352C50.1181 38.1839 50.0334 37.8312 49.9493 37.4785C49.9375 37.4306 49.9473 37.3774 49.9473 37.3295Z" fill="#061257"/>
<path d="M37.9213 28.6373C37.9922 28.6785 38.0592 28.7065 38.1124 28.7517C38.4178 29.0099 38.7488 29.2368 39.0325 29.5163C39.0279 29.6567 38.9445 29.7419 38.888 29.8377C38.7068 30.1425 38.5807 30.4692 38.4881 30.8119C38.3902 31.1746 38.4434 31.4847 38.8775 31.7615C39.0574 31.8773 39.2597 31.9618 39.4594 32.0403C39.9407 32.2293 40.4464 32.3171 40.956 32.3783C41.658 32.4635 42.364 32.5247 43.0706 32.5028C44.2389 32.4675 45.4046 32.393 46.5407 32.0835C46.7883 32.0163 47.0306 31.9285 47.273 31.8467C47.3597 31.8174 47.4509 31.7914 47.512 31.6903C47.5127 31.4793 47.4299 31.2784 47.3505 31.0774C47.1488 30.5644 46.8875 30.0826 46.5979 29.6155C46.5164 29.485 46.4245 29.3599 46.3871 29.1896C46.4554 29.135 46.5125 29.0751 46.5801 29.0345C46.9407 28.8203 47.2782 28.5654 47.6486 28.3884C47.7859 28.4423 47.8253 28.5561 47.8732 28.6552C48.0433 29.0106 48.2147 29.3646 48.3697 29.7266C48.5398 30.1265 48.7013 30.5318 48.8044 30.9563C48.8484 31.138 48.8898 31.3203 48.9194 31.5046C48.985 31.9225 48.8668 32.2825 48.5674 32.582C48.3907 32.759 48.1884 32.898 47.9684 33.0132C47.6033 33.2041 47.2198 33.3519 46.8251 33.4676C46.0469 33.6959 45.2568 33.8716 44.4491 33.9581C43.858 34.0219 43.267 34.0912 42.672 34.0632C41.6896 34.018 40.7065 33.9654 39.749 33.7052C39.3615 33.6001 38.9885 33.461 38.6312 33.2747C38.318 33.1116 38.0382 32.908 37.7926 32.6512C37.2075 32.0396 36.9967 31.313 37.1267 30.4792C37.2206 29.8737 37.4557 29.324 37.7814 28.813C37.8189 28.7537 37.8688 28.7025 37.9213 28.6373Z" fill="#061257"/>
<path d="M91.5386 25.2353C91.6286 25.3138 91.6365 25.4103 91.6463 25.5008C91.6962 25.9653 91.7435 26.4291 91.7882 26.8935C91.825 27.2748 91.8565 27.6581 91.888 28.0401C91.8965 28.1432 91.9018 28.247 91.9011 28.3508C91.9005 29.9905 91.9025 31.6301 91.8952 33.2697C91.8933 33.6224 91.8624 33.9744 91.8407 34.3264C91.8282 34.524 91.7954 34.5653 91.6109 34.5946C91.2267 34.6571 90.8412 34.7124 90.457 34.7696C90.4268 34.7742 90.3953 34.7756 90.3651 34.7756C90.2521 34.7742 90.1996 34.725 90.195 34.6019C90.1917 34.5194 90.2002 34.4362 90.2055 34.3537C90.2173 34.168 90.2331 33.9817 90.2436 33.7954C90.3079 32.728 90.3309 31.6594 90.304 30.5913C90.2863 29.866 90.237 29.1414 90.1976 28.4167C90.1792 28.0647 90.1556 27.7134 90.128 27.3613C90.0939 26.9381 90.0538 26.5149 90.017 26.091C90.0144 26.0598 90.0098 26.0292 90.0078 25.9979C89.9914 25.7357 90.0137 25.6924 90.2567 25.6119C90.6265 25.4895 90.9988 25.3737 91.3712 25.2586C91.427 25.2413 91.4894 25.2419 91.5386 25.2353Z" fill="#061257"/>
<path d="M41.8152 36.0481C41.8605 35.9849 41.8802 35.9476 41.9084 35.9203C42.2421 35.5982 42.5776 35.2788 42.9145 34.9594C42.927 34.9481 42.952 34.9501 42.9986 34.9388C43.4025 35.2622 43.7735 35.6428 44.1354 36.0308C44.0723 36.2351 43.8989 36.3096 43.7801 36.432C43.6514 36.5651 43.5194 36.6969 43.3834 36.822C43.256 36.9391 43.1549 37.0881 42.9986 37.16C42.8653 37.1321 42.797 37.0336 42.7221 36.9531C42.4358 36.6456 42.0752 36.4134 41.8152 36.0481Z" fill="#061257"/>
<path d="M73.1466 28.083C73.1637 28.0271 73.1637 28.0018 73.1768 27.9892C73.5078 27.6651 73.8394 27.3424 74.1724 27.021C74.2006 26.993 74.2394 26.9764 74.288 26.9444C74.5277 27.0862 74.7096 27.2971 74.9112 27.4814C75.1069 27.6598 75.2987 27.8454 75.4615 28.0338C75.4491 28.0843 75.4497 28.1089 75.4379 28.1223C75.3906 28.1762 75.3433 28.2314 75.2888 28.2766C74.9513 28.5608 74.6708 28.9081 74.3202 29.1896C74.267 29.1543 74.2184 29.133 74.1849 29.0978C73.8539 28.7464 73.4599 28.4603 73.1466 28.083Z" fill="#061257"/>
<path d="M84.885 36.4752C84.5606 36.8325 84.2355 37.1559 83.8632 37.442C83.6346 37.3356 83.502 37.1293 83.3253 36.9782C83.1474 36.8245 82.9556 36.6835 82.8203 36.4672C82.9267 36.2443 83.127 36.1105 83.2899 35.9455C83.4554 35.7785 83.6392 35.6301 83.8179 35.4704C84.0503 35.5848 84.2034 35.7698 84.3748 35.9275C84.5468 36.0859 84.73 36.2383 84.885 36.4752Z" fill="#061257"/>
<path d="M85.1991 36.4456C85.2792 36.3565 85.3377 36.2853 85.4033 36.2214C85.6463 35.9838 85.8913 35.7476 86.1382 35.514C86.1579 35.4947 86.194 35.4927 86.2196 35.4841C86.4278 35.6085 87.0707 36.2314 87.2461 36.4822C87.2093 36.5335 87.1758 36.5973 87.1272 36.6439C86.8823 36.8802 86.6347 37.1131 86.3878 37.3466C86.3648 37.3679 86.3405 37.3872 86.3162 37.4052C86.2492 37.4571 86.1829 37.4484 86.1185 37.3985C86.0942 37.3792 86.0699 37.3599 86.0482 37.3386C85.7987 37.0924 85.5485 36.8469 85.3009 36.598C85.2667 36.5641 85.2451 36.5148 85.1991 36.4456Z" fill="#061257"/>
</svg>
