<svg width="20" height="20" viewBox="0 0 20 20" fill="none" xmlns="http://www.w3.org/2000/svg">
  <g id="Call">
    <path id="Vector" d="M1.66187 17.2391C1.59123 17.1685 1.5559 17.1332 1.52731 17.1021C0.82423 16.3369 0.82423 15.1608 1.52731 14.3956C1.5559 14.3645 1.59123 14.3292 1.66187 14.2585L3.12007 12.8004C3.92212 11.9983 5.13336 11.7689 6.17314 12.2222C7.21293 12.6754 8.42416 12.446 9.22622 11.644L11.623 9.24714C12.4251 8.44509 12.6545 7.23385 12.2012 6.19407C11.748 5.15428 11.9774 3.94304 12.7794 3.14099L14.2376 1.6828C14.3083 1.61215 14.3436 1.57683 14.3747 1.54823C15.1399 0.845156 16.316 0.845156 17.0811 1.54823C17.1123 1.57683 17.1476 1.61215 17.2182 1.6828L18.1046 2.56914C18.8264 3.29093 19.1294 4.33146 18.9079 5.32793C17.3991 12.1175 12.0966 17.4201 5.307 18.9288C4.31054 19.1503 3.27001 18.8473 2.54821 18.1255L1.66187 17.2391Z" stroke="#3982fb" stroke-width="1.5"/>
  </g>
</svg>
